<?xml version="1.0" encoding="UTF-8"?> <svg xmlns="http://www.w3.org/2000/svg" xmlns:xlink="http://www.w3.org/1999/xlink" id="Capa_1" height="512" viewBox="0 0 242.952 242.952" width="512"> <linearGradient id="lg1"> <stop offset="0" stop-color="#20d6de"></stop> <stop offset="1" stop-color="#5e309d"></stop> </linearGradient> <linearGradient id="SVGID_1_" gradientTransform="matrix(1 0 0 -1 0 286)" gradientUnits="userSpaceOnUse" x1="-8.098" x2="247.515" xlink:href="#lg1" y1="164.525" y2="164.525"></linearGradient> <linearGradient id="SVGID_3_" gradientTransform="matrix(1 0 0 -1 0 286)" gradientUnits="userSpaceOnUse" x1="-8.098" x2="247.515" xlink:href="#lg1" y1="76.566" y2="76.566"></linearGradient> <linearGradient id="SVGID_4_" gradientTransform="matrix(1 0 0 -1 0 286)" gradientUnits="userSpaceOnUse" x1="-8.098" x2="247.515" xlink:href="#lg1" y1="250.59" y2="250.59"></linearGradient> <linearGradient id="SVGID_5_" gradientTransform="matrix(1 0 0 -1 0 286)" gradientUnits="userSpaceOnUse" x1="-8.098" x2="247.515" xlink:href="#lg1" y1="209.066" y2="209.066"></linearGradient> <linearGradient id="SVGID_6_" gradientTransform="matrix(1 0 0 -1 0 286)" gradientUnits="userSpaceOnUse" x1="-8.098" x2="247.515" xlink:href="#lg1" y1="281.951" y2="281.951"></linearGradient> <linearGradient id="SVGID_7_" gradientTransform="matrix(1 0 0 -1 0 286)" gradientUnits="userSpaceOnUse" x1="-8.098" x2="247.515" xlink:href="#lg1" y1="115.877" y2="115.877"></linearGradient> <linearGradient id="SVGID_8_" gradientTransform="matrix(1 0 0 -1 0 286)" gradientUnits="userSpaceOnUse" x1="-8.098" x2="247.515" xlink:href="#lg1" y1="47.098" y2="47.098"></linearGradient> <linearGradient id="SVGID_10_" gradientTransform="matrix(1 0 0 -1 0 286)" gradientUnits="userSpaceOnUse" x1="-8.098" x2="247.515" xlink:href="#lg1" y1="180.722" y2="180.722"></linearGradient> <linearGradient id="SVGID_11_" gradientTransform="matrix(1 0 0 -1 0 286)" gradientUnits="userSpaceOnUse" x1="-8.098" x2="247.515" xlink:href="#lg1" y1="103.787" y2="103.787"></linearGradient> <path d="m121.476 214.607c51.435 0 93.132-41.696 93.132-93.132s-41.696-93.132-93.132-93.132-93.132 41.696-93.132 93.132c.058 51.412 41.721 93.074 93.132 93.132zm-71.634-47.505 11.876-8.908 18.472 3.693c1.535.328 3.119-.275 4.049-1.539l12.148-16.197c1.342-1.789.98-4.327-.809-5.669-.06-.045-.121-.088-.183-.129l-10.848-7.228-2.685-10.751 12.269-3.069c1.45-.364 2.582-1.497 2.944-2.948l2.988-11.953 8.001 2.664c1.017.347 2.13.269 3.09-.215l16.197-8.098c1.698-.849 2.578-2.763 2.118-4.604l-3.584-14.33 10.123-13.504 14.804-3.701c.565-.14 1.093-.401 1.547-.765l13.48-10.783c5.299 3.243 10.231 7.053 14.707 11.362l-11.775 8.406h-10.852c-1.858.001-3.478 1.266-3.928 3.069l-3.879 15.517-6.94 10.406-10.828 3.612c-1.653.551-2.768 2.097-2.77 3.839v12.148c0 1.924 1.354 3.583 3.239 3.968l19.347 3.875 15.476 11.593c.978.728 2.23.981 3.413.688l14.456-3.616 10.657 7.106c.299.201.625.36.968.47l6.349 2.118c-1.359 5.023-3.181 9.91-5.442 14.597l-14.711-4.203c-.362-.102-.737-.154-1.114-.154h-18.57l-6.912-6.912c-.759-.759-1.789-1.186-2.863-1.186h-15.699l-15.711-3.928c-1.11-.28-2.287-.077-3.239.559l-12.148 8.098c-.838.56-1.437 1.411-1.68 2.389l-3.778 15.104-10.159 10.172h-10.469c-1.074 0-2.104.427-2.863 1.186l-8.993 8.993c-7.579-5.944-14.1-13.125-19.286-21.242zm71.634 39.407c-16.188-.003-32.034-4.658-45.651-13.411l6.835-6.835h10.471c1.074 0 2.104-.427 2.863-1.186l12.148-12.148c.519-.519.887-1.17 1.065-1.883l3.669-14.678 9.358-6.236 14.456 3.616c.322.081.652.121.984.121h14.52l6.912 6.912c.759.759 1.789 1.186 2.863 1.186h19.679l12.427 3.551c-15.373 25.413-42.899 40.955-72.599 40.991zm83.749-70.833-5.021-1.672-11.694-7.799c-.952-.636-2.129-.839-3.239-.559l-14.326 3.579-14.646-10.99c-.479-.361-1.032-.61-1.62-.729l-17.007-3.397v-5.912l9.378-3.13c.854-.284 1.589-.843 2.089-1.591l8.098-12.148c.258-.387.447-.816.559-1.267l3.284-13.128h8.985c.844.001 1.667-.264 2.353-.757l13.711-9.771c16.479 19.04 23.494 44.496 19.096 69.29zm-83.749-99.233c12.693.015 25.218 2.893 36.645 8.418l-10.123 8.098-15.342 3.835c-.901.226-1.698.755-2.255 1.498l-12.148 16.197c-.731.975-.984 2.227-.688 3.409l3.239 13.047-11.787 5.912-10.557-3.515c-2.122-.706-4.415.441-5.121 2.563-.032.098-.061.196-.086.296l-3.462 13.84-13.84 3.458c-2.167.544-3.485 2.74-2.944 4.908l4.049 16.197c.243.978.843 1.829 1.68 2.389l8.588 5.726-8.05 10.747-17.727-3.563c-1.134-.231-2.313.034-3.239.729l-12.528 9.394c-21.375-41.721-4.881-92.87 36.84-114.245 12.024-6.162 25.345-9.363 38.856-9.338z" fill="url(#SVGID_1_)"></path> <path d="m8.098 121.476c0 62.617 50.761 113.378 113.378 113.378s113.378-50.761 113.378-113.378-50.761-113.378-113.378-113.378c-62.587.072-113.306 50.791-113.378 113.378zm113.378-105.279c58.144 0 105.279 47.135 105.279 105.279s-47.135 105.279-105.279 105.279-105.279-47.135-105.279-105.279c.065-58.117 47.162-105.214 105.279-105.279z" fill="url(#SVGID_1_)"></path> <path d="m188.288 238.356c21.89-12.617 39.455-31.556 50.392-54.332l-7.289-3.511c-10.239 21.308-26.674 39.027-47.153 50.838z" fill="url(#SVGID_3_)"></path> <path d="m.405 63.03 7.289 3.515c11.599-24.006 30.977-43.382 54.984-54.98l-3.519-7.289c-25.651 12.398-46.356 33.103-58.754 58.754z" fill="url(#SVGID_4_)"></path> <path d="m0 72.886h8.098v8.098h-8.098z" fill="url(#SVGID_5_)"></path> <path d="m69.015 0h8.098v8.098h-8.098z" fill="url(#SVGID_6_)"></path> <path d="m234.853 166.074h8.098v8.098h-8.098z" fill="url(#SVGID_7_)"></path> <path d="m170.066 234.853h8.098v8.098h-8.098z" fill="url(#SVGID_8_)"></path> <path d="m80.984 97.181c1.074 0 2.104-.427 2.863-1.186 1.365-1.365 13.334-13.605 13.334-23.109 0-8.945-7.252-16.197-16.197-16.197s-16.197 7.251-16.197 16.197c0 9.503 11.969 21.744 13.334 23.109.759.759 1.789 1.186 2.863 1.186zm0-32.394c4.473 0 8.098 3.626 8.098 8.098 0 3.535-4.118 9.641-8.098 14.273-3.98-4.632-8.098-10.738-8.098-14.273 0-4.472 3.625-8.098 8.098-8.098z" fill="url(#SVGID_5_)"></path> <path d="m178.165 85.033c-8.945 0-16.197 7.252-16.197 16.197 0 9.503 11.969 21.744 13.334 23.109 1.581 1.581 4.144 1.581 5.726 0 1.365-1.365 13.334-13.605 13.334-23.109 0-8.945-7.252-16.197-16.197-16.197zm0 30.47c-3.98-4.632-8.098-10.738-8.098-14.273 0-4.473 3.626-8.098 8.098-8.098 4.473 0 8.098 3.626 8.098 8.098 0 3.535-4.118 9.641-8.098 14.273z" fill="url(#SVGID_10_)"></path> <path d="m137.673 161.968c-8.945 0-16.197 7.252-16.197 16.197 0 9.503 11.969 21.744 13.334 23.109 1.581 1.581 4.144 1.581 5.726 0 1.365-1.365 13.334-13.605 13.334-23.109 0-8.946-7.252-16.197-16.197-16.197zm0 30.47c-3.98-4.632-8.098-10.738-8.098-14.273 0-4.473 3.626-8.098 8.098-8.098 4.473 0 8.098 3.626 8.098 8.098 0 3.535-4.118 9.641-8.098 14.273z" fill="url(#SVGID_11_)"></path> </svg> 