<?xml version="1.0" encoding="UTF-8"?> <svg xmlns="http://www.w3.org/2000/svg" xmlns:xlink="http://www.w3.org/1999/xlink" height="480pt" viewBox="-14 0 480 480.00005" width="480pt"> <linearGradient id="a"> <stop offset="0" stop-color="#4761ac"></stop> <stop offset="1" stop-color="#54c2ef"></stop> </linearGradient> <linearGradient id="b" gradientUnits="userSpaceOnUse" x1="-16.050024" x2="456.557976" xlink:href="#a" y1="240" y2="240"></linearGradient> <linearGradient id="c" gradientUnits="userSpaceOnUse" x1="-16.050024" x2="456.557976" xlink:href="#a" y1="256" y2="256"></linearGradient> <linearGradient id="d" gradientUnits="userSpaceOnUse" x1="-16.050024" x2="456.557976" xlink:href="#a" y1="196" y2="196"></linearGradient> <path d="m387.40625 32.136719c-28.0625 1.269531-48.734375 25.695312-49.601562 26.734375-2.648438 3.183594-2.433594 7.859375.496093 10.785156l18.335938 18.34375-15.816407 15.816406c-24.820312-19.136718-53.964843-31.878906-84.871093-37.097656v-18.71875h32c4.417969 0 8-3.582031 8-8 0-15.921875-12.800781-40-32-40h-80c-19.199219 0-32 24.078125-32 40 0 4.417969 3.582031 8 8 8h32v18.71875c-30.902344 5.21875-60.050781 17.957031-84.871094 37.097656l-19.816406-19.816406 22.34375-22.34375c1.597656-1.597656 2.445312-3.796875 2.332031-6.054688-.113281-2.257812-1.175781-4.363281-2.921875-5.792968-17.144531-14.039063-58.210937-32-90.722656.535156s-14.566407 73.601562-.535157 90.71875c1.429688 1.753906 3.535157 2.820312 5.792969 2.9375h.398438c2.121093 0 4.15625-.84375 5.65625-2.34375l22.34375-22.34375 19.816406 19.816406c-64.5 83.710938-49.023437 203.84375 34.585937 268.480469l-63.808593 58.496094c-2.433594 2.226562-3.246094 5.722656-2.050781 8.796875 1.199218 3.074218 4.160156 5.097656 7.457031 5.097656h48c1.976562 0 3.882812-.734375 5.351562-2.054688l49.433594-44.488281c46.875 19.382813 99.523437 19.382813 146.398437 0l49.433594 44.488281c1.476563 1.328126 3.394532 2.0625 5.382813 2.054688h48c3.300781 0 6.261719-2.023438 7.457031-5.097656 1.195312-3.074219.382812-6.570313-2.046875-8.796875l-63.808594-58.496094c83.609375-64.632813 99.089844-184.765625 34.589844-268.480469l15.808594-15.816406 26.34375 26.34375c3.125 3.121094 8.1875 3.121094 11.3125 0 17.175781-17.175781 39.28125-60 0-99.3125-10.757813-11.90625-26.15625-18.550781-42.199219-18.207031zm-203.457031-16.136719h80c5.785156 0 11.855469 7.878906 14.5625 16h-109.121094c2.703125-8.121094 8.773437-16 14.558594-16zm24 32h32v16.71875c-5.277344-.4375-10.605469-.71875-16-.71875-5.390625 0-10.71875.28125-16 .71875zm-182.824219 75.511719c-7.4375-12.6875-18.160156-39.199219 4.480469-61.855469 8.136719-8.679688 19.488281-13.621094 31.382812-13.65625 10.777344.359375 21.277344 3.511719 30.464844 9.152344zm38.136719-15.511719 12.6875-12.6875 18.792969 18.792969c-4.425782 4.03125-8.65625 8.261719-12.6875 12.6875zm29.601562 356h-24.34375l51.199219-46.902344c4.960938 3.199219 10.070312 6.191406 15.328125 8.980469zm286.503907 0h-24.34375l-42.136719-37.921875c5.257812-2.753906 10.367187-5.75 15.328125-8.980469zm-155.417969-32c-97.203125 0-176-78.796875-176-176s78.796875-176 176-176 176 78.796875 176 176c-.109375 97.15625-78.84375 175.890625-176 176zm141.898437-305.207031c-4.035156-4.421875-8.261718-8.652344-12.691406-12.6875l14.792969-14.792969 12.6875 12.6875zm57.597656 5.367187-68.246093-68.230468c8.890625-8.816407 20.488281-14.386719 32.925781-15.808594 11.539062-.058594 22.539062 4.878906 30.167969 13.535156 29.136719 29.144531 14.144531 58.121094 5.128906 70.503906zm0 0" fill="url(#b)"></path> <path d="m223.949219 96c-88.363281 0-160 71.632812-160 160s71.636719 160 160 160c88.367187 0 160-71.632812 160-160-.101563-88.324219-71.675781-159.898438-160-160zm0 304c-64.257813.152344-120.839844-42.285156-138.679688-104.019531-17.839843-61.730469 7.375-127.808594 61.808594-161.960938 54.429687-34.148437 124.902344-28.101562 172.71875 14.820313l-45.253906 45.257812c-26.5-21.710937-63.882813-24.136718-92.96875-6.035156-29.082031 18.101562-43.414063 52.710938-35.640625 86.074219 7.773437 33.363281 35.925781 58.074219 70.015625 61.457031v40.40625c0 4.417969 3.582031 8 8 8s8-3.582031 8-8v-40.40625c29.316406-2.921875 54.652343-21.738281 65.921875-48.957031 11.269531-27.222657 6.652344-58.4375-12.015625-81.230469l45.292969-45.253906c37.976562 42.246094 47.507812 102.894531 24.328124 154.753906-23.175781 51.859375-74.722656 85.207031-131.527343 85.09375zm4.089843-159.398438c-1.332031-.382812-2.707031-.582031-4.089843-.601562-7.230469-.019531-13.570313 4.828125-15.445313 11.8125s1.179688 14.355469 7.445313 17.964844v49.671875c-26.847657-3.289063-48.726563-23.097657-54.660157-49.488281-5.933593-26.386719 5.363282-53.65625 28.21875-68.121094 22.855469-14.460938 52.335938-12.996094 73.640626 3.664062zm3.910157 29.175782c4.933593-2.835938 7.984375-8.085938 8-13.777344-.019531-1.382812-.21875-2.757812-.597657-4.089844l35.09375-35.109375c14.148438 18.125 17.457032 42.460938 8.660157 63.703125-8.796875 21.246094-28.335938 36.121094-51.15625 38.945313zm0 0" fill="url(#c)"></path> <path d="m223.949219 144c4.417969 0 8-3.582031 8-8s-3.582031-8-8-8c-70.65625.082031-127.914063 57.34375-128 128 0 4.417969 3.582031 8 8 8s8-3.582031 8-8c.066406-61.828125 50.171875-111.933594 112-112zm0 0" fill="url(#d)"></path> </svg> 