<?xml version="1.0" encoding="UTF-8"?> <svg xmlns="http://www.w3.org/2000/svg" xmlns:xlink="http://www.w3.org/1999/xlink" id="Capa_1" height="512" viewBox="0 0 280.946 280.946" width="512"> <linearGradient id="lg1"> <stop offset="0" stop-color="#20d6de"></stop> <stop offset="1" stop-color="#5e309d"></stop> </linearGradient> <linearGradient id="SVGID_1_" gradientTransform="matrix(1 0 0 -1 0 324.2)" gradientUnits="userSpaceOnUse" x1="-18.696" x2="299.951" xlink:href="#lg1" y1="282.018" y2="282.018"></linearGradient> <linearGradient id="SVGID_2_" gradientTransform="matrix(1 0 0 -1 0 324.2)" gradientUnits="userSpaceOnUse" x1="-18.696" x2="299.951" xlink:href="#lg1" y1="235.204" y2="235.204"></linearGradient> <linearGradient id="SVGID_3_" gradientTransform="matrix(1 0 0 -1 0 324.2)" gradientUnits="userSpaceOnUse" x1="-18.696" x2="299.951" xlink:href="#lg1" y1="113.486" y2="113.486"></linearGradient> <linearGradient id="SVGID_4_" gradientTransform="matrix(1 0 0 -1 0 324.2)" gradientUnits="userSpaceOnUse" x1="-18.696" x2="299.951" xlink:href="#lg1" y1="66.672" y2="66.672"></linearGradient> <linearGradient id="SVGID_6_" gradientTransform="matrix(1 0 0 -1 0 324.2)" gradientUnits="userSpaceOnUse" x1="-18.696" x2="299.951" xlink:href="#lg1" y1="183.727" y2="183.727"></linearGradient> <linearGradient id="SVGID_8_" gradientTransform="matrix(1 0 0 -1 0 324.2)" gradientUnits="userSpaceOnUse" x1="-18.698" x2="299.95" xlink:href="#lg1" y1="223.5" y2="223.5"></linearGradient> <linearGradient id="SVGID_9_" gradientTransform="matrix(1 0 0 -1 0 324.2)" gradientUnits="userSpaceOnUse" x1="-18.695" x2="299.952" xlink:href="#lg1" y1="179.025" y2="179.025"></linearGradient> <linearGradient id="SVGID_10_" gradientTransform="matrix(1 0 0 -1 0 324.199)" gradientUnits="userSpaceOnUse" x1="-18.695" x2="299.952" xlink:href="#lg1" y1="183.709" y2="183.709"></linearGradient> <linearGradient id="SVGID_11_" gradientTransform="matrix(1 0 0 -1 0 324.199)" gradientUnits="userSpaceOnUse" x1="-18.697" x2="299.95" xlink:href="#lg1" y1="221.159" y2="221.159"></linearGradient> <linearGradient id="SVGID_12_" gradientTransform="matrix(1 0 0 -1 0 324.2)" gradientUnits="userSpaceOnUse" x1="-18.696" x2="299.951" xlink:href="#lg1" y1="76.035" y2="76.035"></linearGradient> <linearGradient id="SVGID_13_" gradientTransform="matrix(1 0 0 -1 0 324.2)" gradientUnits="userSpaceOnUse" x1="-18.696" x2="299.951" xlink:href="#lg1" y1="160.301" y2="160.301"></linearGradient> <path d="m163.88 42.182c0-12.927-10.48-23.407-23.407-23.407s-23.407 10.48-23.407 23.407 10.48 23.407 23.407 23.407c12.921-.015 23.391-10.486 23.407-23.407zm-23.407 14.044c-7.756 0-14.044-6.288-14.044-14.044s6.288-14.044 14.044-14.044 14.044 6.288 14.044 14.044-6.288 14.044-14.044 14.044z" fill="url(#SVGID_1_)"></path> <path d="m135.791 84.315h9.363v9.363h-9.363z" fill="url(#SVGID_2_)"></path> <path d="m79.614 210.714c0-12.927-10.48-23.407-23.407-23.407s-23.407 10.48-23.407 23.407 10.48 23.407 23.407 23.407c12.921-.015 23.391-10.486 23.407-23.407zm-23.407 14.044c-7.756 0-14.044-6.288-14.044-14.044s6.288-14.044 14.044-14.044 14.044 6.288 14.044 14.044-6.288 14.044-14.044 14.044z" fill="url(#SVGID_3_)"></path> <path d="m51.525 252.847h9.363v9.363h-9.363z" fill="url(#SVGID_4_)"></path> <path d="m248.146 210.714c0-12.927-10.48-23.407-23.407-23.407s-23.407 10.48-23.407 23.407 10.48 23.407 23.407 23.407c12.921-.015 23.391-10.486 23.407-23.407zm-23.407 14.044c-7.756 0-14.044-6.288-14.044-14.044s6.288-14.044 14.044-14.044 14.044 6.288 14.044 14.044-6.288 14.044-14.044 14.044z" fill="url(#SVGID_3_)"></path> <path d="m232.566 169.189-44.137-83.859c16.109-26.501 7.685-61.043-18.815-77.152s-61.043-7.685-77.152 18.815c-9.493 15.616-10.792 34.874-3.485 51.624l-40.766 90.6c-30.694 4.397-52.013 32.844-47.616 63.539s32.844 52.013 63.539 47.616c24.18-3.464 43.346-22.164 47.403-46.251h57.872c5.153 30.577 34.118 51.186 64.694 46.033s51.186-34.118 46.033-64.694c-4.069-24.147-23.319-42.871-47.57-46.271zm-92.093-159.777c25.834-.018 46.791 20.91 46.809 46.745.012 16.729-8.912 32.191-23.402 40.55v-7.71c0-12.927-10.48-23.407-23.407-23.407s-23.407 10.48-23.407 23.407v7.71c-22.377-12.91-30.053-41.515-17.143-63.893 8.359-14.491 23.821-23.414 40.55-23.402zm14.044 79.584v11.886c-9.142 2.877-18.947 2.877-28.089 0v-11.886c0-7.756 6.288-14.044 14.044-14.044s14.045 6.288 14.045 14.044zm-84.266 180.418c-9.142 2.878-18.947 2.878-28.089 0v-11.886c0-7.756 6.288-14.044 14.044-14.044s14.044 6.288 14.044 14.044v11.886zm9.363-4.175v-7.71c0-12.927-10.48-23.407-23.407-23.407s-23.407 10.48-23.407 23.407v7.71c-22.391-12.927-30.063-41.559-17.135-63.95 12.927-22.391 41.559-30.063 63.95-17.135 22.391 12.927 30.063 41.559 17.135 63.95-4.11 7.116-10.019 13.026-17.136 17.135zm88.947-40.481h-56.177c-.038-30.026-23.681-54.715-53.677-56.051l36.005-80.011c17.812 25.261 52.73 31.3 77.991 13.488 3.492-2.462 6.691-5.316 9.533-8.506l39.511 75.067c-29.782 1.602-53.127 26.188-53.186 56.013zm70.222 44.656c-9.142 2.878-18.947 2.878-28.089 0v-11.886c0-7.756 6.288-14.044 14.044-14.044s14.044 6.288 14.044 14.044v11.886zm9.363-4.175v-7.71c0-12.927-10.48-23.407-23.407-23.407s-23.407 10.48-23.407 23.407v7.71c-22.391-12.927-30.063-41.559-17.135-63.95 12.927-22.391 41.559-30.063 63.95-17.135 22.391 12.927 30.063 41.559 17.135 63.95-4.11 7.116-10.019 13.026-17.136 17.135z" fill="url(#SVGID_6_)"></path> <path d="m220.057 252.847h9.363v9.363h-9.363z" fill="url(#SVGID_4_)"></path> <path d="m47.255 124.505 23.423-51.488 8.523 3.877-23.424 51.488z" fill="url(#SVGID_8_)"></path> <path d="m33.296 152.444 9.363-18.725 8.374 4.187-9.363 18.725z" fill="url(#SVGID_9_)"></path> <path d="m220.552 123.859 8.374-4.188 18.726 37.451-8.375 4.187z" fill="url(#SVGID_10_)"></path> <path d="m206.506 95.772 8.374-4.187 9.363 18.725-8.375 4.187z" fill="url(#SVGID_11_)"></path> <path d="m121.747 243.484h42.133v9.363h-42.133z" fill="url(#SVGID_12_)"></path> <path d="m140.473 121.766c-23.269 0-42.133 18.864-42.133 42.133s18.864 42.133 42.133 42.133 42.133-18.864 42.133-42.133c-.026-23.258-18.875-42.107-42.133-42.133zm-32.77 42.133c-.059-18.039 14.516-32.71 32.555-32.77 3.016-.01 6.019.398 8.923 1.212l-3.436 10.299-11.891 11.896h-12.106c-2.585 0-4.681 2.096-4.681 4.681v12.106l-6.306 6.306c-2.01-4.298-3.054-8.984-3.058-13.73zm23.898 21.315-4.326 8.647c-4.304-1.91-8.147-4.723-11.268-8.249l9.049-9.049c.876-.875 1.369-2.062 1.372-3.3v-9.363h9.363c1.242 0 2.432-.494 3.31-1.372l14.044-14.044c.513-.514.899-1.141 1.128-1.83l3.511-10.524c4.977 3.107 9.033 7.487 11.75 12.687l-12.429 6.189c-1.109.558-1.951 1.533-2.341 2.711l-4.213 12.64-17.569 13.206c-.582.434-1.055 1-1.381 1.651zm41.642-21.315c.096 18.003-14.42 32.674-32.423 32.77-1.451.008-2.901-.081-4.341-.267l3.005-6.016 17.841-13.38c.763-.57 1.332-1.361 1.629-2.266l4.068-12.205 9.62-4.808c.394 2.036.595 4.101.601 6.172z" fill="url(#SVGID_13_)"></path> </svg> 