<?xml version="1.0" encoding="UTF-8"?> <svg xmlns="http://www.w3.org/2000/svg" xmlns:xlink="http://www.w3.org/1999/xlink" id="Capa_1" height="512" viewBox="0 0 280.887 280.887" width="512"> <linearGradient id="lg1"> <stop offset="0" stop-color="#20d6de"></stop> <stop offset="1" stop-color="#5e309d"></stop> </linearGradient> <linearGradient id="SVGID_1_" gradientTransform="matrix(1 0 0 -1 0 324.2)" gradientUnits="userSpaceOnUse" x1="-18.726" x2="276.8" xlink:href="#lg1" y1="251.638" y2="251.638"></linearGradient> <linearGradient id="SVGID_2_" gradientTransform="matrix(1 0 0 -1 0 324.2)" gradientUnits="userSpaceOnUse" x1="-18.726" x2="276.8" xlink:href="#lg1" y1="211.845" y2="211.845"></linearGradient> <linearGradient id="SVGID_3_" gradientTransform="matrix(1 0 0 -1 0 324.2)" gradientUnits="userSpaceOnUse" x1="-18.726" x2="276.8" xlink:href="#lg1" y1="186.097" y2="186.097"></linearGradient> <linearGradient id="SVGID_4_" gradientTransform="matrix(1 0 0 -1 0 324.2)" gradientUnits="userSpaceOnUse" x1="-18.726" x2="276.8" xlink:href="#lg1" y1="181.416" y2="181.416"></linearGradient> <linearGradient id="SVGID_5_" gradientTransform="matrix(1 0 0 -1 0 324.2)" gradientUnits="userSpaceOnUse" x1="-18.726" x2="276.8" xlink:href="#lg1" y1="190.779" y2="190.779"></linearGradient> <linearGradient id="SVGID_6_" gradientTransform="matrix(1 0 0 -1 0 324.2)" gradientUnits="userSpaceOnUse" x1="-18.726" x2="276.8" xlink:href="#lg1" y1="183.757" y2="183.757"></linearGradient> <linearGradient id="SVGID_7_" gradientTransform="matrix(1 0 0 -1 0 324.2)" gradientUnits="userSpaceOnUse" x1="-18.726" x2="276.8" xlink:href="#lg1" y1="188.438" y2="188.438"></linearGradient> <linearGradient id="SVGID_8_" gradientTransform="matrix(1 0 0 -1 0 324.2)" gradientUnits="userSpaceOnUse" x1="-18.726" x2="276.8" xlink:href="#lg1" y1="113.535" y2="113.535"></linearGradient> <path d="m79.585 98.31c7.756 0 14.044-6.288 14.044-14.044-.007-.847-.093-1.692-.257-2.523l37.021-11.109c5.367 5.557 14.223 5.711 19.779.344.074-.072.147-.144.22-.217l32.325 12.102c-.071.465-.118.934-.14 1.404.011 7.756 6.307 14.036 14.063 14.025 6.629-.009 12.349-4.652 13.721-11.137l28.164-16.09c5.657 5.277 14.52 4.969 19.797-.687 5.277-5.657 4.969-14.52-.687-19.797s-14.52-4.969-19.797.687c-2.428 2.603-3.774 6.032-3.765 9.591.021.628.084 1.253.187 1.873l-25.519 14.583c-3.797-6.707-12.313-9.065-19.02-5.268-1.119.633-2.145 1.418-3.049 2.333l-32.325-12.116c.071-.465.118-.934.14-1.404 0-7.756-6.288-14.044-14.044-14.044s-14.044 6.288-14.044 14.044c0 .398.084.772.117 1.161l-38.088 11.426c-2.482-2.072-5.61-3.212-8.843-3.226-7.756 0-14.044 6.288-14.044 14.044s6.287 14.045 14.044 14.045zm168.532-42.133c2.585 0 4.681 2.096 4.681 4.681s-2.096 4.681-4.681 4.681-4.681-2.096-4.681-4.681c-.001-2.585 2.095-4.681 4.681-4.681zm-51.496 23.408c2.585 0 4.681 2.096 4.681 4.681s-2.096 4.681-4.681 4.681-4.681-2.096-4.681-4.681c-.001-2.585 2.095-4.681 4.681-4.681zm-56.178-23.408c2.585 0 4.681 2.096 4.681 4.681s-2.096 4.681-4.681 4.681-4.681-2.096-4.681-4.681 2.096-4.681 4.681-4.681zm-60.858 23.408c2.585 0 4.681 2.096 4.681 4.681s-2.096 4.681-4.681 4.681-4.681-2.096-4.681-4.681c-.001-2.585 2.095-4.681 4.681-4.681z" fill="url(#SVGID_1_)"></path> <path d="m23.407 177.895h238.754v-9.363h-234.072v-121.718h-9.363v126.399c0 2.586 2.096 4.682 4.681 4.682z" fill="url(#SVGID_2_)"></path> <path d="m42.133 117.036h9.363v42.133h-9.363z" fill="url(#SVGID_3_)"></path> <path d="m60.859 126.399h9.363v32.77h-9.363z" fill="url(#SVGID_4_)"></path> <path d="m79.585 107.673h9.363v51.496h-9.363z" fill="url(#SVGID_5_)"></path> <path d="m98.31 121.718h9.363v37.452h-9.363z" fill="url(#SVGID_6_)"></path> <path d="m117.036 159.169h140.443v-46.814h-140.443zm9.363-37.451h121.718v28.089h-121.718z" fill="url(#SVGID_7_)"></path> <path d="m154.488 210.665c0-7.756-6.288-14.044-14.044-14.044s-14.044 6.288-14.044 14.044 6.288 14.044 14.044 14.044 14.044-6.288 14.044-14.044zm-14.045 4.681c-2.585 0-4.681-2.096-4.681-4.681s2.096-4.681 4.681-4.681 4.681 2.096 4.681 4.681-2.095 4.681-4.681 4.681z" fill="url(#SVGID_8_)"></path> <path d="m266.842 0h-252.798c-7.756 0-14.044 6.288-14.044 14.044v205.984c0 7.756 6.288 14.044 14.044 14.044h94.247l-12.485 18.726h-39.629c-2.585 0-4.681 2.096-4.681 4.681v18.726c0 2.585 2.096 4.681 4.681 4.681h168.532c2.585 0 4.681-2.096 4.681-4.681v-18.726c0-2.585-2.096-4.681-4.681-4.681h-39.628l-12.485-18.726h94.247c7.756 0 14.044-6.288 14.044-14.044v-205.984c0-7.756-6.288-14.044-14.045-14.044zm-46.814 262.161v9.363h-159.169v-9.363zm-46.201-9.363h-66.767l12.481-18.726h41.805zm97.697-32.77c0 2.585-2.096 4.681-4.681 4.681h-252.799c-2.585 0-4.681-2.096-4.681-4.681v-23.407h262.161zm0-32.77h-262.161v-149.806h262.161zm0-159.169h-262.161v-14.045c0-2.585 2.096-4.681 4.681-4.681h252.798c2.585 0 4.681 2.096 4.681 4.681v14.045z" fill="url(#SVGID_6_)"></path> <g fill="url(#SVGID_7_)"> <path d="m135.762 131.08h9.363v9.363h-9.363z"></path> <path d="m159.169 131.08h9.363v9.363h-9.363z"></path> <path d="m182.576 131.08h9.363v9.363h-9.363z"></path> <path d="m205.984 131.08h9.363v9.363h-9.363z"></path> <path d="m229.391 131.08h9.363v9.363h-9.363z"></path> </g> </svg> 