<?xml version="1.0" encoding="UTF-8"?> <svg xmlns="http://www.w3.org/2000/svg" height="512px" viewBox="0 0 454.17099 454.17099" width="512px" class="hovered-paths"> <g> <path d="m385.632812 68.539062c-56.292968-58.34375-139.695312-81.757812-218.128906-61.238281-78.433594 20.515625-139.6875 81.769531-160.203125 160.203125-20.519531 78.433594 2.894531 161.835938 61.238281 218.128906 56.292969 58.339844 139.695313 81.753907 218.128907 61.238282 78.433593-20.515625 139.6875-81.769532 160.203125-160.203125 20.515625-78.433594-2.898438-161.835938-61.238282-218.128907zm-148.726562 362.847657v-13.074219c0-5.4375-4.40625-9.847656-9.84375-9.847656-5.441406 0-9.847656 4.410156-9.847656 9.847656v13.074219c-104.980469-5-189.480469-89.5-194.480469-194.480469h13.074219c5.4375 0 9.847656-4.40625 9.847656-9.84375 0-5.441406-4.410156-9.847656-9.847656-9.847656h-13.074219c5-104.980469 89.5-189.480469 194.480469-194.480469v13.074219c0 5.4375 4.40625 9.847656 9.847656 9.847656 5.4375 0 9.84375-4.410156 9.84375-9.847656v-13.074219c104.980469 5 189.480469 89.5 194.480469 194.480469h-13.074219c-5.4375 0-9.847656 4.40625-9.847656 9.847656 0 5.4375 4.410156 9.84375 9.847656 9.84375h13.074219c-5 104.980469-89.5 189.480469-194.480469 194.480469zm0 0" data-original="#000000" class="hovered-path active-path" data-old_color="#000000" fill="#212353"></path> <path d="m293.03125 147.140625-51.988281 51.996094c-1.339844-.679688-2.730469-1.257813-4.15625-1.734375v-125.230469c0-5.4375-4.40625-9.847656-9.84375-9.847656-5.441407 0-9.847657 4.410156-9.847657 9.847656v125.230469c-12.410156 4.105468-20.960937 15.488281-21.441406 28.550781-.480468 13.0625 7.207032 25.042969 19.28125 30.046875 12.074219 5.007812 25.988282 1.976562 34.886719-7.59375 8.898437-9.574219 10.910156-23.667969 5.042969-35.347656l52.015625-51.96875c3.855469-3.851563 3.855469-10.097656 0-13.949219-3.851563-3.855469-10.097657-3.855469-13.949219 0zm-65.96875 91.480469c-6.386719 0-11.5625-5.175782-11.5625-11.558594 0-6.386719 5.175781-11.5625 11.5625-11.5625 6.382812 0 11.558594 5.175781 11.558594 11.5625-.011719 6.378906-5.179688 11.546875-11.558594 11.558594zm0 0" data-original="#000000" class="hovered-path active-path" data-old_color="#000000" fill="#212353"></path> </g> </svg> 