<?xml version="1.0" encoding="UTF-8"?> <svg xmlns="http://www.w3.org/2000/svg" xmlns:xlink="http://www.w3.org/1999/xlink" height="60pt" viewBox="-1 0 60 60" width="60pt"> <linearGradient id="a"> <stop offset="0" stop-color="#20d6de"></stop> <stop offset="1" stop-color="#5e309d"></stop> </linearGradient> <linearGradient id="b" gradientUnits="userSpaceOnUse" x1="-3" x2="63.03" xlink:href="#a" y1="30" y2="30"></linearGradient> <linearGradient id="c" gradientUnits="userSpaceOnUse" x1="-3" x2="63.03" xlink:href="#a" y1="15" y2="15"></linearGradient> <linearGradient id="d" gradientUnits="userSpaceOnUse" x1="-3" x2="63.03" xlink:href="#a" y1="18" y2="18"></linearGradient> <linearGradient id="e" gradientUnits="userSpaceOnUse" x1="-3" x2="63.03" xlink:href="#a" y1="25" y2="25"></linearGradient> <linearGradient id="f" gradientUnits="userSpaceOnUse" x1="-3" x2="63.03" xlink:href="#a" y1="29" y2="29"></linearGradient> <linearGradient id="g" gradientUnits="userSpaceOnUse" x1="-3" x2="63.03" xlink:href="#a" y1="7" y2="7"></linearGradient> <linearGradient id="h" gradientUnits="userSpaceOnUse" x1="-3" x2="63.03" xlink:href="#a" y1="11" y2="11"></linearGradient> <path d="m57.707031 8.292969-8-8c-.1875-.1875-.441406-.292969-.707031-.292969h-48c-.550781 0-1 .449219-1 1v58c0 .550781.449219 1 1 1h56c.550781 0 1-.449219 1-1v-50c0-.265625-.105469-.519531-.292969-.707031zm-15.707031 43.707031v-4h2v2h2v-2h2v2h2v-2h2v2h2v-2h2v4zm4-8v-2h2v2h2v-2h2v2h2v-2h2v4h-14v-4h2v2zm4-40.585938 4.585938 4.585938h-4.585938zm-2-1.414062v7c0 .550781.449219 1 1 1h7v30h-15c-.550781 0-1 .449219-1 1v17h-2v-23c0-.550781-.449219-1-1-1h-16c-.550781 0-1 .449219-1 1v23h-2v-29c0-.550781-.449219-1-1-1h-15v-26zm-26 50v-4h2v2h2v-2h2v2h2v-2h2v2h2v-2h2v4zm4-14v-2h2v2h2v-2h2v2h2v-2h2v4h-14v-4h2v2zm-4 8v-4h2v2h2v-2h2v2h2v-2h2v2h2v-2h2v4zm-20 6v-4h2v2h2v-2h2v2h2v-2h2v2h2v-2h2v4zm0-22h2v2h2v-2h2v2h2v-2h2v2h2v-2h2v4h-14zm0 16v-4h2v2h2v-2h2v2h2v-2h2v2h2v-2h2v4zm0-10h2v2h2v-2h2v2h2v-2h2v2h2v-2h2v4h-14zm0 22v-4h2v2h2v-2h2v2h2v-2h2v2h2v-2h2v4zm20 0v-4h2v2h2v-2h2v2h2v-2h2v2h2v-2h2v4zm34 0h-14v-4h2v2h2v-2h2v2h2v-2h2v2h2v-2h2zm0 0" fill="url(#b)"></path> <path d="m14 22h2v-2h2c.550781 0 1-.449219 1-1v-4c0-.550781-.449219-1-1-1h-5v-2h6v-2h-3v-2h-2v2h-2c-.550781 0-1 .449219-1 1v4c0 .550781.449219 1 1 1h5v2h-6v2h3zm0 0" fill="url(#c)"></path> <path d="m52 14h-24v8h24zm-2 6h-20v-4h20zm0 0" fill="url(#d)"></path> <path d="m28 24h22v2h-22zm0 0" fill="url(#e)"></path> <g fill="url(#f)"> <path d="m28 28h6v2h-6zm0 0"></path> <path d="m36 28h2v2h-2zm0 0"></path> <path d="m40 28h3v2h-3zm0 0"></path> <path d="m45 28h5v2h-5zm0 0"></path> </g> <path d="m15 26c6.074219 0 11-4.925781 11-11s-4.925781-11-11-11-11 4.925781-11 11c.007812 6.070312 4.929688 10.992188 11 11zm0-20c4.96875 0 9 4.03125 9 9s-4.03125 9-9 9-9-4.03125-9-9c.003906-4.96875 4.03125-8.996094 9-9zm0 0" fill="url(#c)"></path> <path d="m28 6h12v2h-12zm0 0" fill="url(#g)"></path> <path d="m42 6h2v2h-2zm0 0" fill="url(#g)"></path> <path d="m28 10h14v2h-14zm0 0" fill="url(#h)"></path> </svg> 