<?xml version="1.0" encoding="UTF-8"?> <svg xmlns="http://www.w3.org/2000/svg" xmlns:xlink="http://www.w3.org/1999/xlink" height="60pt" viewBox="0 -3 60.003272 60" width="60pt"> <linearGradient id="a"> <stop offset="0" stop-color="#20d6de"></stop> <stop offset="1" stop-color="#5e309d"></stop> </linearGradient> <linearGradient id="b" gradientUnits="userSpaceOnUse" x1="-3" x2="59.514" xlink:href="#a" y1="27.501636" y2="27.501636"></linearGradient> <linearGradient id="c" gradientUnits="userSpaceOnUse" x1="-3" x2="59.514" xlink:href="#a" y1="46.001636" y2="46.001636"></linearGradient> <path d="m51 37c-4.582031.007812-8.425781 3.449219-8.941406 8h-3.492188l-5.132812-8.554688c3.945312-1.289062 6.824218-4.691406 7.445312-8.796874.621094-4.101563-1.125-8.203126-4.511718-10.601563l5.046874-5.046875h2.585938v3c0 .554688.449219 1 1 1h12c.550781 0 1-.445312 1-1v-8c0-.550781-.449219-1-1-1h-12c-.550781 0-1 .449219-1 1v3h-3.414062l-6.011719 6.011719c-1.867188-.878907-3.953125-1.195313-6-.90625l-6.074219-8.105469h-4.5v-6c0-.550781-.449219-1-1-1h-16c-.550781 0-1 .449219-1 1v14c0 .554688.449219 1 1 1h16c.550781 0 1-.445312 1-1v-6h3.5l4.949219 6.601562c-3.90625 1.328126-6.742188 4.730469-7.335938 8.816407-.59375 4.082031 1.152344 8.152343 4.519531 10.539062l-5.046874 5.042969h-2.585938v-3h-16v14h16v-9h3.414062l6.011719-6.007812c1.851563.871093 3.917969 1.1875 5.949219.914062l6.058594 10.09375h4.625c.539062 4.8125 4.785156 8.335938 9.613281 7.976562 4.828125-.359374 8.507813-4.472656 8.324219-9.3125-.179688-4.835937-4.15625-8.664062-8.996094-8.664062zm-5-23v-5.128906l4.445312 2.960937c.335938.226563.773438.226563 1.109376 0l4.445312-2.960937v5.128906zm2.300781-6h5.398438l-2.699219 1.800781zm-32.300781-6v8h-4.585938l2.292969-2.292969-1.414062-1.414062-3.707031 3.707031h-2.171876l2.292969-2.292969-1.414062-1.414062-3.707031 3.707031h-1.585938v-8zm0 12h-14v-2h14zm-14 25h12v3h-12zm10 10v-2h-2v2h-8v-5h12v5zm14.910156-19h2.089844v3.417969c-.835938-1.046875-1.539062-2.195313-2.089844-3.417969zm-5.910156-4c.003906-.671875.082031-1.34375.234375-2h2.964844c-.261719 1.320312-.261719 2.679688 0 4h-2.964844c-.152344-.652344-.230469-1.324219-.234375-2zm5 0c.003906-.671875.082031-1.34375.238281-2h2.761719v4h-2.761719c-.15625-.652344-.234375-1.324219-.238281-2zm7.089844-4h-2.089844v-3.414062c.835938 1.046874 1.539062 2.195312 2.089844 3.414062zm5.910156 4c-.003906.675781-.082031 1.347656-.234375 2h-2.964844c.261719-1.320312.261719-2.679688 0-4h2.964844c.152344.65625.230469 1.328125.234375 2zm-5 0c-.003906.675781-.082031 1.347656-.238281 2h-2.761719v-4h2.761719c.15625.65625.234375 1.328125.238281 2zm-5-4h-2.089844c.554688-1.21875 1.253906-2.363281 2.089844-3.410156zm2 8h2.089844c-.554688 1.21875-1.253906 2.367188-2.089844 3.410156zm1.605469 4.617188c1.113281-1.394532 2.003906-2.949219 2.640625-4.617188h2.8125c-1.105469 2.222656-3.078125 3.890625-5.453125 4.617188zm5.453125-12.617188h-2.8125c-.636719-1.664062-1.527344-3.21875-2.640625-4.613281 2.375.726562 4.347656 2.394531 5.453125 4.613281zm-10.664063-4.613281c-1.113281 1.394531-2.003906 2.949219-2.640625 4.613281h-2.8125c1.105469-2.21875 3.078125-3.886719 5.453125-4.613281zm-5.453125 12.613281h2.8125c.636719 1.667969 1.527344 3.222656 2.640625 4.617188-2.375-.726563-4.347656-2.394532-5.453125-4.617188zm29.058594 23c-3.867188 0-7-3.132812-7-7 0-3.863281 3.132812-7 7-7s7 3.136719 7 7c-.003906 3.867188-3.136719 6.996094-7 7zm0 0" fill="url(#b)"></path> <path d="m55.445312 45.105469-6-3c-.308593-.152344-.675781-.136719-.972656.046875-.292968.179687-.472656.503906-.472656.847656v6c0 .347656.175781.671875.472656.855469.292969.183593.664063.203125.972656.046875l6-3c.339844-.167969.554688-.515625.554688-.894532 0-.378906-.214844-.726562-.554688-.894531zm-5.445312 2.277343v-2.761718l2.765625 1.378906zm0 0" fill="url(#c)"></path> </svg> 