<?xml version="1.0" encoding="UTF-8"?> <svg xmlns="http://www.w3.org/2000/svg" xmlns:xlink="http://www.w3.org/1999/xlink" height="512" viewBox="0 0 64 64" width="512"> <linearGradient id="New_Gradient_Swatch_5" gradientUnits="userSpaceOnUse" x2="62.008" y1="48" y2="48"> <stop offset="0" stop-color="#4761ac"></stop> <stop offset="1" stop-color="#54c2ef"></stop> </linearGradient> <linearGradient id="New_Gradient_Swatch_5-2" x2="62.008" xlink:href="#New_Gradient_Swatch_5" y1="32" y2="32"></linearGradient> <linearGradient id="New_Gradient_Swatch_5-3" x2="62.008" xlink:href="#New_Gradient_Swatch_5" y1="14" y2="14"></linearGradient> <linearGradient id="New_Gradient_Swatch_5-4" x2="62.008" xlink:href="#New_Gradient_Swatch_5" y1="21" y2="21"></linearGradient> <linearGradient id="New_Gradient_Swatch_5-5" x2="62.008" xlink:href="#New_Gradient_Swatch_5" y1="36.5" y2="36.5"></linearGradient> <linearGradient id="New_Gradient_Swatch_5-6" x2="62.008" xlink:href="#New_Gradient_Swatch_5" y1="17" y2="17"></linearGradient> <linearGradient id="New_Gradient_Swatch_5-9" x2="62.008" xlink:href="#New_Gradient_Swatch_5" y1="27" y2="27"></linearGradient> <linearGradient id="New_Gradient_Swatch_5-12" x2="62.008" xlink:href="#New_Gradient_Swatch_5" y1="33" y2="33"></linearGradient> <linearGradient id="New_Gradient_Swatch_5-13" x2="62.008" xlink:href="#New_Gradient_Swatch_5" y1="37" y2="37"></linearGradient> <linearGradient id="New_Gradient_Swatch_5-15" x2="62.008" xlink:href="#New_Gradient_Swatch_5" y1="18.646" y2="18.646"></linearGradient> <linearGradient id="New_Gradient_Swatch_5-16" x2="62.008" xlink:href="#New_Gradient_Swatch_5" y1="26.646" y2="26.646"></linearGradient> <linearGradient id="New_Gradient_Swatch_5-17" x2="62.008" xlink:href="#New_Gradient_Swatch_5" y1="35.646" y2="35.646"></linearGradient> <g id="Gradient_outline" data-name="Gradient outline"> <path d="m35 48a3 3 0 1 0 -3 3 3 3 0 0 0 3-3zm-3 1a1 1 0 1 1 1-1 1 1 0 0 1 -1 1z" fill="url(#New_Gradient_Swatch_5)"></path> <path d="m59 2h-54a3 3 0 0 0 -3 3v45a3 3 0 0 0 3 3h19.919l-2.4 3h-8.519a1 1 0 0 0 -1 1v4a1 1 0 0 0 1 1h36a1 1 0 0 0 1-1v-4a1 1 0 0 0 -1-1h-8.519l-2.4-3h19.919a3 3 0 0 0 3-3v-45a3 3 0 0 0 -3-3zm-10 56v2h-34v-2zm-23.919-2 2.4-3h9.04l2.4 3zm34.919-6a1 1 0 0 1 -1 1h-54a1 1 0 0 1 -1-1v-5h56zm-48-7v-31h36v31zm48 0h-10v-33h-40v33h-6v-35h56zm0-37h-56v-1a1 1 0 0 1 1-1h54a1 1 0 0 1 1 1z" fill="url(#New_Gradient_Swatch_5-2)"></path> <path d="m6 10h2v8h-2z" fill="url(#New_Gradient_Swatch_5-3)"></path> <path d="m6 20h2v2h-2z" fill="url(#New_Gradient_Swatch_5-4)"></path> <path d="m58 40v-8h-2v7h-3v2h4a1 1 0 0 0 1-1z" fill="url(#New_Gradient_Swatch_5-5)"></path> <path d="m24 16h10v2h-10z" fill="url(#New_Gradient_Swatch_5-6)"></path> <path d="m24 20h6v2h-6z" fill="url(#New_Gradient_Swatch_5-4)"></path> <path d="m36 16h10v2h-10z" fill="url(#New_Gradient_Swatch_5-6)"></path> <path d="m24 26h13v2h-13z" fill="url(#New_Gradient_Swatch_5-9)"></path> <path d="m32 20h14v2h-14z" fill="url(#New_Gradient_Swatch_5-4)"></path> <path d="m39 26h7v2h-7z" fill="url(#New_Gradient_Swatch_5-9)"></path> <path d="m24 32h22v2h-22z" fill="url(#New_Gradient_Swatch_5-12)"></path> <path d="m24 36h13v2h-13z" fill="url(#New_Gradient_Swatch_5-13)"></path> <path d="m39 36h7v2h-7z" fill="url(#New_Gradient_Swatch_5-13)"></path> <path d="m17 19.586-1.293-1.293-1.414 1.414 2 2a1 1 0 0 0 1.414 0l5-5-1.414-1.414z" fill="url(#New_Gradient_Swatch_5-15)"></path> <path d="m17 27.586-1.293-1.293-1.414 1.414 2 2a1 1 0 0 0 1.414 0l5-5-1.414-1.414z" fill="url(#New_Gradient_Swatch_5-16)"></path> <path d="m17 36.586-1.293-1.293-1.414 1.414 2 2a1 1 0 0 0 1.414 0l5-5-1.414-1.414z" fill="url(#New_Gradient_Swatch_5-17)"></path> </g> </svg> 