<?xml version="1.0" encoding="UTF-8"?> <svg xmlns="http://www.w3.org/2000/svg" xmlns:xlink="http://www.w3.org/1999/xlink" height="480pt" viewBox="0 -8 480 480" width="480pt"> <linearGradient id="a"> <stop offset="0" stop-color="#20d6de"></stop> <stop offset="1" stop-color="#5e309d"></stop> </linearGradient> <linearGradient id="b" gradientUnits="userSpaceOnUse" x1="-8" x2="490.32" xlink:href="#a" y1="232" y2="232"></linearGradient> <linearGradient id="c" gradientUnits="userSpaceOnUse" x1="-8" x2="490.32" xlink:href="#a" y1="384" y2="384"></linearGradient> <linearGradient id="d" gradientUnits="userSpaceOnUse" x1="-8" x2="490.32" xlink:href="#a" y1="216" y2="216"></linearGradient> <linearGradient id="e" gradientUnits="userSpaceOnUse" x1="-8" x2="490.32" xlink:href="#a" y1="296" y2="296"></linearGradient> <linearGradient id="f" gradientUnits="userSpaceOnUse" x1="-8" x2="490.32" xlink:href="#a" y1="248" y2="248"></linearGradient> <linearGradient id="g" gradientUnits="userSpaceOnUse" x1="-8" x2="490.32" xlink:href="#a" y1="104" y2="104"></linearGradient> <path d="m456 48h-8v-40c0-4.417969-3.582031-8-8-8h-32c-4.417969 0-8 3.582031-8 8v40h-32v-40c0-4.417969-3.582031-8-8-8h-32c-4.417969 0-8 3.582031-8 8v40h-160v-40c0-4.417969-3.582031-8-8-8h-32c-4.417969 0-8 3.582031-8 8v40h-32v-40c0-4.417969-3.582031-8-8-8h-32c-4.417969 0-8 3.582031-8 8v40h-8c-13.253906 0-24 10.746094-24 24v368c0 13.253906 10.746094 24 24 24h432c13.253906 0 24-10.746094 24-24v-368c0-13.253906-10.746094-24-24-24zm-40-32h16v32h-16zm-80 0h16v32h-16zm-208 0h16v32h-16zm-80 0h16v32h-16zm-32 56c0-4.417969 3.582031-8 8-8h432c4.417969 0 8 3.582031 8 8v48c0 4.417969-3.582031 8-8 8h-432c-4.417969 0-8-3.582031-8-8zm440 376h-432c-4.417969 0-8-3.582031-8-8v-297.472656c2.5625.949218 5.269531 1.445312 8 1.472656h432c2.730469-.027344 5.4375-.523438 8-1.472656v297.472656c0 4.417969-3.582031 8-8 8zm0 0" fill="url(#b)"></path> <path d="m152 344h-112c-4.417969 0-8 3.582031-8 8v64c0 4.417969 3.582031 8 8 8h112c4.417969 0 8-3.582031 8-8v-64c0-4.417969-3.582031-8-8-8zm-8 64h-96v-48h96zm0 0" fill="url(#c)"></path> <path d="m248 184h-64c-4.417969 0-8 3.582031-8 8v48c0 4.417969 3.582031 8 8 8h64c4.417969 0 8-3.582031 8-8v-48c0-4.417969-3.582031-8-8-8zm-8 48h-48v-32h48zm0 0" fill="url(#d)"></path> <path d="m248 264h-64c-4.417969 0-8 3.582031-8 8v48c0 4.417969 3.582031 8 8 8h64c4.417969 0 8-3.582031 8-8v-48c0-4.417969-3.582031-8-8-8zm-8 48h-48v-32h48zm0 0" fill="url(#e)"></path> <path d="m248 344h-64c-4.417969 0-8 3.582031-8 8v64c0 4.417969 3.582031 8 8 8h64c4.417969 0 8-3.582031 8-8v-64c0-4.417969-3.582031-8-8-8zm-8 64h-48v-48h48zm0 0" fill="url(#c)"></path> <path d="m368 168c-44.183594 0-80 35.816406-80 80s35.816406 80 80 80 80-35.816406 80-80c-.046875-44.164062-35.835938-79.953125-80-80zm0 144c-35.347656 0-64-28.652344-64-64s28.652344-64 64-64 64 28.652344 64 64c-.039062 35.328125-28.671875 63.960938-64 64zm0 0" fill="url(#f)"></path> <path d="m400 248h-24v-40c0-4.417969-3.582031-8-8-8s-8 3.582031-8 8v48c0 4.417969 3.582031 8 8 8h32c4.417969 0 8-3.582031 8-8s-3.582031-8-8-8zm0 0" fill="url(#b)"></path> <g fill="url(#g)"> <path d="m32 96h16v16h-16zm0 0"></path> <path d="m64 96h16v16h-16zm0 0"></path> <path d="m112 96h16v16h-16zm0 0"></path> <path d="m144 96h16v16h-16zm0 0"></path> <path d="m216 96h16v16h-16zm0 0"></path> <path d="m248 96h16v16h-16zm0 0"></path> <path d="m320 96h16v16h-16zm0 0"></path> <path d="m352 96h16v16h-16zm0 0"></path> <path d="m400 96h16v16h-16zm0 0"></path> <path d="m432 96h16v16h-16zm0 0"></path> </g> <path d="m40 248h112c2.949219 0 5.664062-1.625 7.054688-4.226562 1.390624-2.601563 1.238281-5.757813-.398438-8.214844l-13.054688-19.558594 13.039063-19.558594c1.636719-2.453125 1.789063-5.609375.402344-8.207031-1.386719-2.601563-4.09375-4.230469-7.042969-4.234375h-112c-4.417969 0-8 3.582031-8 8v48c0 4.417969 3.582031 8 8 8zm89.34375-27.558594 7.710938 11.558594h-25.054688v-32h25.054688l-7.710938 11.558594c-1.792969 2.691406-1.792969 6.191406 0 8.882812zm-81.34375-20.441406h48v32h-48zm0 0" fill="url(#d)"></path> <path d="m40 328h112c2.949219 0 5.664062-1.625 7.054688-4.226562 1.390624-2.601563 1.238281-5.757813-.398438-8.214844l-13.054688-19.558594 13.039063-19.558594c1.636719-2.453125 1.789063-5.609375.402344-8.207031-1.386719-2.601563-4.09375-4.230469-7.042969-4.234375h-112c-4.417969 0-8 3.582031-8 8v48c0 4.417969 3.582031 8 8 8zm89.34375-27.558594 7.710938 11.558594h-25.054688v-32h25.054688l-7.710938 11.558594c-1.792969 2.691406-1.792969 6.191406 0 8.882812zm-81.34375-20.441406h48v32h-48zm0 0" fill="url(#e)"></path> <path d="m344 344h-32c-4.417969 0-8 3.582031-8 8v64c0 4.417969 3.582031 8 8 8h32c4.417969 0 8-3.582031 8-8v-64c0-4.417969-3.582031-8-8-8zm-8 64h-16v-48h16zm0 0" fill="url(#c)"></path> <path d="m424 344h-32c-4.417969 0-8 3.582031-8 8v64c0 4.417969 3.582031 8 8 8h32c4.417969 0 8-3.582031 8-8v-64c0-4.417969-3.582031-8-8-8zm-8 64h-16v-48h16zm0 0" fill="url(#c)"></path> </svg> 