<?xml version="1.0" encoding="UTF-8" standalone="no"?> <svg xmlns="http://www.w3.org/2000/svg" width="600" height="600" viewBox="0 0 600 600"> <g transform="translate(300,300)"> <path d="M103.1,-172.3C133.4,-141,157.7,-112,163.9,-80.2C170.1,-48.4,158.3,-13.7,144.7,14.7C131.2,43.1,115.8,65.1,101.5,96C87.2,126.8,73.9,166.6,45,193.3C16.2,220,-28.3,233.8,-71.2,227.9C-114.2,222,-155.7,196.5,-192.6,162.2C-229.5,128,-261.7,85.2,-247.4,48.2C-233,11.3,-172,-19.7,-143.7,-59C-115.4,-98.3,-119.9,-145.9,-101.4,-182.6C-82.9,-219.3,-41.4,-245.2,-2.5,-241.2C36.4,-237.3,72.8,-203.6,103.1,-172.3Z" fill="#f3f6fb"></path> </g> </svg> 